<svg id="eaqmct6wcaxe1" xmlns="http://www.w3.org/2000/svg" xmlns:xlink="http://www.w3.org/1999/xlink" viewBox="0 0 74.660000 103" shape-rendering="geometricPrecision" text-rendering="geometricPrecision"><style><![CDATA[#eaqmct6wcaxe5_to {animation: eaqmct6wcaxe5_to__to 5000ms linear infinite normal forwards}@keyframes eaqmct6wcaxe5_to__to { 0% {transform: translate(31px,19.700000px)} 80% {transform: translate(31px,19.700000px)} 84% {transform: translate(31px,23px)} 88% {transform: translate(31px,19.700000px)} 90% {transform: translate(31px,19.700000px)} 94% {transform: translate(31px,23px)} 98% {transform: translate(31px,19.700000px)} 100% {transform: translate(31px,19.700000px)} }#eaqmct6wcaxe5_ts {animation: eaqmct6wcaxe5_ts__ts 5000ms linear infinite normal forwards}@keyframes eaqmct6wcaxe5_ts__ts { 0% {transform: rotate(90deg) scale(1,1)} 80% {transform: rotate(90deg) scale(1,1)} 84% {transform: rotate(90deg) scale(0.400000,1)} 88% {transform: rotate(90deg) scale(1,1)} 90% {transform: rotate(90deg) scale(1,1)} 94% {transform: rotate(90deg) scale(0.400000,1)} 98% {transform: rotate(90deg) scale(1,1)} 100% {transform: rotate(90deg) scale(1,1)} }]]></style><defs><linearGradient id="eaqmct6wcaxe4-fill" x1="15.660000" y1="51.500000" x2="74.660000" y2="51.500000" spreadMethod="pad" gradientUnits="userSpaceOnUse"><stop id="eaqmct6wcaxe4-fill-0" offset="0%" stop-color="rgb(207,27,27)"/><stop id="eaqmct6wcaxe4-fill-1" offset="100%" stop-color="rgb(207,27,27)"/></linearGradient><linearGradient id="eaqmct6wcaxe5-fill" x1="-0.010001" y1="5.830001" x2="11.989999" y2="5.830001" spreadMethod="pad" gradientUnits="userSpaceOnUse"><stop id="eaqmct6wcaxe5-fill-0" offset="0%" stop-color="rgb(207,27,27)"/><stop id="eaqmct6wcaxe5-fill-1" offset="100%" stop-color="rgb(207,27,27)"/></linearGradient></defs><g id="eaqmct6wcaxe2"><g id="eaqmct6wcaxe3"><path id="eaqmct6wcaxe4" d="M74.660000,73.500000C74.660000,89.792400,61.452400,103,45.160000,103C28.867600,103,15.660000,89.792400,15.660000,73.500000L15.660000,4.500000C15.821078,1.890599,18.048636,-0.105293,20.660000,0.020000L22.660000,0.020000C25.271364,-0.105293,27.498922,1.890599,27.660000,4.500000L27.660000,19L41.660000,19C44.421424,19,46.660000,21.238576,46.660000,24L46.660000,26C46.660000,28.761424,44.421424,31,41.660000,31L27.660000,31L27.660000,74C27.666245,74.164229,27.682946,74.327894,27.710000,74.490000C28.254939,84.005355,36.318116,91.332603,45.842053,90.967133C55.365990,90.601663,62.843933,82.678043,62.658062,73.148909C62.472191,63.619775,54.690944,55.993794,45.160000,56L41,56C40.552944,56.003484,40.107925,55.939428,39.680000,55.810000C37.511388,55.216436,36.005674,53.248370,36,51L36,49.380000C36.005674,47.131630,37.511388,45.163564,39.680000,44.570000L39.680000,44.570000C48.316549,42.927390,57.235618,45.223686,64.005161,50.832736C70.774704,56.441786,74.688743,64.778636,74.680000,73.570000Z" fill="url(#eaqmct6wcaxe4-fill)" stroke="none" stroke-width="1"/><g id="eaqmct6wcaxe5_to" transform="translate(31,19.700000)"><g id="eaqmct6wcaxe5_ts" transform="rotate(90) scale(1,1)"><rect id="eaqmct6wcaxe5" width="12" height="11.650000" rx="4.870000" ry="4.870000" transform="translate(-0.170000,19.170000)" fill="url(#eaqmct6wcaxe5-fill)" stroke="none" stroke-width="1"/></g></g></g></g></svg>