<svg xmlns="http://www.w3.org/2000/svg" xmlns:xlink="http://www.w3.org/1999/xlink" viewBox="0 0 74.66 103"><defs><style>.cls-1{fill:url(#linear-gradient);}.cls-2{fill:url(#linear-gradient-2);}</style><linearGradient id="linear-gradient" x1="15.66" y1="51.5" x2="74.66" y2="51.5" gradientUnits="userSpaceOnUse"><stop offset="0" stop-color="#cf1b1b"/><stop offset="1" stop-color="#cf1b1b"/></linearGradient><linearGradient id="linear-gradient-2" x1="67.79" y1="180.78" x2="79.79" y2="180.78" gradientTransform="translate(-67.97 -155.78)" xlink:href="#linear-gradient"/></defs><g id="Layer_2" data-name="Layer 2"><g id="Layer_1-2" data-name="Layer 1"><path class="cls-1" d="M74.66,73.5a29.5,29.5,0,0,1-59,0v-69a4.78,4.78,0,0,1,5-4.48h2a4.78,4.78,0,0,1,5,4.48V19h14a5,5,0,0,1,5,5v2a5,5,0,0,1-5,5h-14V74a3.87,3.87,0,0,0,.05.49A17.49,17.49,0,1,0,45.16,56H41a4.44,4.44,0,0,1-1.32-.19A5,5,0,0,1,36,51V49.38a5,5,0,0,1,3.68-4.81v0a29.49,29.49,0,0,1,35,29Z"/><rect class="cls-2" x="-0.17" y="19.17" width="12" height="11.65" rx="4.87" transform="translate(30.83 19.17) rotate(90)"/></g></g></svg>